# xmcd
#
# Track frame offsets: 
#        182
#        15672
#        32287
#        44330
#        60025
#        73837
#        83665
#        96140
#        113250
#        129037
#        142070
#        162155
#        188592
#        199135
#        223205
#        241592
#        275877
#
# Disc length: 3890 seconds
#
# Revision: 5
# Processed by: cddbd v1.4PL0 Copyright (c) Steve Scherf et al.
# Submitted via: ExactAudioCopy v0.95a3
#
DISCID=db0f3011
DTITLE=Various Artist - Real - The Tom T. Hall Project
DYEAR=1998
DGENRE=Country
TTITLE0=I Washed My Face In The Morning Dew - Johnny Cash
TTITLE1=That's How I Got To Memphis - Kelly Willis
TTITLE2=When Love Is Gone - Richard Buckner
TTITLE3=Don't Forget the Coffee, Billy Joe - R.B. Morris
TTITLE4=Coffee, Coffee, Coffee - Freedy Johnston
TTITLE5=Old Enough to Want To (Fool Enough To Try) - Jonny Polansky
TTITLE6=Ships Go Out - Ron Sexsmith
TTITLE7=I Miss Alot Of Trains - Iris Dement
TTITLE8=Tulsa Telephone Book - Calexico
TTITLE9=Harper Valley P.T.A. - Syd Straw and the Skeletons
TTITLE10=Spokane Motel Blues - Joel R.L. Phelps
TTITLE11=Homecoming - Joe Henry
TTITLE12=The Water Lily - Ralph Stanley featuring Ralph Stanley II
TTITLE13=I'm Not Ready Yet - The Mary Janes
TTITLE14=Candy In The Window - Mary Cutrufello
TTITLE15=I Hope It Rains At My Funeral - Whiskeytown
TTITLE16=It Sure Can Get Cold In Des Moines - Mark Olson with Victoria
TTITLE16=Williams
EXTD=ID3G: 2
EXTT0=
EXTT1=
EXTT2=
EXTT3=
EXTT4=
EXTT5=
EXTT6=
EXTT7=
EXTT8=
EXTT9=
EXTT10=
EXTT11=
EXTT12=
EXTT13=
EXTT14=
EXTT15=
EXTT16=
PLAYORDER=
